<mxfile host="app.diagrams.net" agent="Mozilla/5.0 (Windows NT 10.0; Win64; x64) AppleWebKit/537.36 (KHTML, like Gecko) Chrome/132.0.0.0 Safari/537.36 OPR/117.0.0.0" version="26.0.16">
  <diagram name="Page-1" id="56tN8Jho8m08LYoz2s1y">
    <mxGraphModel dx="1990" dy="1086" grid="1" gridSize="5" guides="1" tooltips="1" connect="1" arrows="1" fold="1" page="1" pageScale="1" pageWidth="1150" pageHeight="600" math="0" shadow="0">
      <root>
        <mxCell id="0" />
        <mxCell id="1" parent="0" />
        <mxCell id="LJEUfoLFm-hJULReYEJR-2" value="STM32G474RET6&lt;div&gt;Microcontroller&lt;/div&gt;" style="whiteSpace=wrap;html=1;aspect=fixed;" vertex="1" parent="1">
          <mxGeometry x="325" y="260" width="110" height="110" as="geometry" />
        </mxCell>
        <mxCell id="LJEUfoLFm-hJULReYEJR-3" value="&lt;font style=&quot;color: rgb(255, 0, 0);&quot;&gt;Alimentation&lt;/font&gt;&lt;div&gt;&lt;font style=&quot;color: rgb(255, 0, 0);&quot;&gt;230V -&amp;gt; 12V&lt;/font&gt;&lt;/div&gt;" style="rounded=0;whiteSpace=wrap;html=1;strokeColor=#FF0000;" vertex="1" parent="1">
          <mxGeometry x="465" y="85" width="90" height="60" as="geometry" />
        </mxCell>
        <mxCell id="LJEUfoLFm-hJULReYEJR-4" value="&lt;font style=&quot;color: rgb(255, 0, 0);&quot;&gt;Buck&lt;/font&gt;&lt;div&gt;&lt;font style=&quot;color: rgb(255, 0, 0);&quot;&gt;12V -&amp;gt; 5V&lt;/font&gt;&lt;/div&gt;" style="rounded=0;whiteSpace=wrap;html=1;strokeColor=#FF0000;" vertex="1" parent="1">
          <mxGeometry x="335" y="90" width="90" height="50" as="geometry" />
        </mxCell>
        <mxCell id="LJEUfoLFm-hJULReYEJR-5" value="&lt;font style=&quot;color: rgb(255, 0, 0);&quot;&gt;LDO&lt;/font&gt;&lt;div&gt;&lt;font style=&quot;color: rgb(255, 0, 0);&quot;&gt;5V -&amp;gt; 3.3V&lt;/font&gt;&lt;/div&gt;" style="rounded=0;whiteSpace=wrap;html=1;strokeColor=#FF0000;" vertex="1" parent="1">
          <mxGeometry x="335" y="180" width="90" height="50" as="geometry" />
        </mxCell>
        <mxCell id="LJEUfoLFm-hJULReYEJR-7" value="Servo motor&lt;div&gt;FS90&lt;/div&gt;" style="rounded=1;whiteSpace=wrap;html=1;" vertex="1" parent="1">
          <mxGeometry x="155" y="235" width="80" height="40" as="geometry" />
        </mxCell>
        <mxCell id="LJEUfoLFm-hJULReYEJR-8" value="Servo motor&lt;div&gt;FS90&lt;/div&gt;" style="rounded=1;whiteSpace=wrap;html=1;" vertex="1" parent="1">
          <mxGeometry x="155" y="295" width="80" height="40" as="geometry" />
        </mxCell>
        <mxCell id="LJEUfoLFm-hJULReYEJR-9" value="Servo motor&lt;div&gt;FS90&lt;/div&gt;" style="rounded=1;whiteSpace=wrap;html=1;" vertex="1" parent="1">
          <mxGeometry x="155" y="355" width="80" height="40" as="geometry" />
        </mxCell>
        <mxCell id="LJEUfoLFm-hJULReYEJR-10" value="Servo motor&lt;div&gt;FS90 360&lt;/div&gt;" style="rounded=1;whiteSpace=wrap;html=1;" vertex="1" parent="1">
          <mxGeometry x="155" y="415" width="80" height="40" as="geometry" />
        </mxCell>
        <mxCell id="LJEUfoLFm-hJULReYEJR-11" value="Servo motor&lt;div&gt;FS90&lt;/div&gt;" style="rounded=1;whiteSpace=wrap;html=1;" vertex="1" parent="1">
          <mxGeometry x="155" y="175" width="80" height="40" as="geometry" />
        </mxCell>
        <mxCell id="LJEUfoLFm-hJULReYEJR-13" value="LCD TFT screen" style="rounded=1;whiteSpace=wrap;html=1;" vertex="1" parent="1">
          <mxGeometry x="295" y="430" width="80" height="40" as="geometry" />
        </mxCell>
        <mxCell id="LJEUfoLFm-hJULReYEJR-14" value="Neopixel LEDs" style="rounded=1;whiteSpace=wrap;html=1;" vertex="1" parent="1">
          <mxGeometry x="498" y="190" width="90" height="40" as="geometry" />
        </mxCell>
        <mxCell id="LJEUfoLFm-hJULReYEJR-15" value="MP3 Module" style="rounded=1;whiteSpace=wrap;html=1;" vertex="1" parent="1">
          <mxGeometry x="405" y="430" width="80" height="40" as="geometry" />
        </mxCell>
        <mxCell id="LJEUfoLFm-hJULReYEJR-16" value="&lt;font style=&quot;color: rgb(51, 153, 255);&quot;&gt;Enceinte&lt;/font&gt;" style="rounded=1;whiteSpace=wrap;html=1;strokeColor=#3399FF;" vertex="1" parent="1">
          <mxGeometry x="405" y="495" width="80" height="40" as="geometry" />
        </mxCell>
        <mxCell id="LJEUfoLFm-hJULReYEJR-17" value="HC05 (Bluetooth)" style="rounded=1;whiteSpace=wrap;html=1;" vertex="1" parent="1">
          <mxGeometry x="513" y="295" width="80" height="40" as="geometry" />
        </mxCell>
        <mxCell id="LJEUfoLFm-hJULReYEJR-18" value="" style="endArrow=classic;html=1;rounded=0;entryX=0.5;entryY=0;entryDx=0;entryDy=0;exitX=0.5;exitY=1;exitDx=0;exitDy=0;strokeColor=#FF0000;" edge="1" parent="1" source="LJEUfoLFm-hJULReYEJR-5" target="LJEUfoLFm-hJULReYEJR-2">
          <mxGeometry width="50" height="50" relative="1" as="geometry">
            <mxPoint x="295" y="320" as="sourcePoint" />
            <mxPoint x="345" y="270" as="targetPoint" />
          </mxGeometry>
        </mxCell>
        <mxCell id="LJEUfoLFm-hJULReYEJR-19" value="" style="endArrow=classic;html=1;rounded=0;entryX=0.5;entryY=0;entryDx=0;entryDy=0;exitX=0.5;exitY=1;exitDx=0;exitDy=0;strokeColor=#FF0000;" edge="1" parent="1" source="LJEUfoLFm-hJULReYEJR-4" target="LJEUfoLFm-hJULReYEJR-5">
          <mxGeometry width="50" height="50" relative="1" as="geometry">
            <mxPoint x="325" y="220" as="sourcePoint" />
            <mxPoint x="375" y="170" as="targetPoint" />
          </mxGeometry>
        </mxCell>
        <mxCell id="LJEUfoLFm-hJULReYEJR-20" value="" style="endArrow=classic;html=1;rounded=0;entryX=1;entryY=0.5;entryDx=0;entryDy=0;exitX=0;exitY=0.5;exitDx=0;exitDy=0;strokeColor=#FF0000;" edge="1" parent="1" source="LJEUfoLFm-hJULReYEJR-3" target="LJEUfoLFm-hJULReYEJR-4">
          <mxGeometry width="50" height="50" relative="1" as="geometry">
            <mxPoint x="325" y="220" as="sourcePoint" />
            <mxPoint x="375" y="170" as="targetPoint" />
          </mxGeometry>
        </mxCell>
        <mxCell id="LJEUfoLFm-hJULReYEJR-21" value="" style="endArrow=classic;html=1;rounded=0;entryX=1;entryY=0.5;entryDx=0;entryDy=0;exitX=-0.003;exitY=0.161;exitDx=0;exitDy=0;exitPerimeter=0;" edge="1" parent="1" source="LJEUfoLFm-hJULReYEJR-2" target="LJEUfoLFm-hJULReYEJR-11">
          <mxGeometry width="50" height="50" relative="1" as="geometry">
            <mxPoint x="165" y="300" as="sourcePoint" />
            <mxPoint x="215" y="250" as="targetPoint" />
          </mxGeometry>
        </mxCell>
        <mxCell id="LJEUfoLFm-hJULReYEJR-22" value="" style="endArrow=classic;html=1;rounded=0;entryX=1;entryY=0.5;entryDx=0;entryDy=0;exitX=0.006;exitY=0.212;exitDx=0;exitDy=0;exitPerimeter=0;" edge="1" parent="1" source="LJEUfoLFm-hJULReYEJR-2" target="LJEUfoLFm-hJULReYEJR-7">
          <mxGeometry width="50" height="50" relative="1" as="geometry">
            <mxPoint x="165" y="300" as="sourcePoint" />
            <mxPoint x="215" y="250" as="targetPoint" />
          </mxGeometry>
        </mxCell>
        <mxCell id="LJEUfoLFm-hJULReYEJR-23" value="" style="endArrow=classic;html=1;rounded=0;entryX=1;entryY=0.5;entryDx=0;entryDy=0;exitX=0;exitY=0.5;exitDx=0;exitDy=0;" edge="1" parent="1" source="LJEUfoLFm-hJULReYEJR-2" target="LJEUfoLFm-hJULReYEJR-8">
          <mxGeometry width="50" height="50" relative="1" as="geometry">
            <mxPoint x="245" y="350" as="sourcePoint" />
            <mxPoint x="295" y="300" as="targetPoint" />
          </mxGeometry>
        </mxCell>
        <mxCell id="LJEUfoLFm-hJULReYEJR-24" value="" style="endArrow=classic;html=1;rounded=0;entryX=1;entryY=0.5;entryDx=0;entryDy=0;exitX=0;exitY=0.678;exitDx=0;exitDy=0;exitPerimeter=0;" edge="1" parent="1" source="LJEUfoLFm-hJULReYEJR-2" target="LJEUfoLFm-hJULReYEJR-9">
          <mxGeometry width="50" height="50" relative="1" as="geometry">
            <mxPoint x="245" y="350" as="sourcePoint" />
            <mxPoint x="295" y="300" as="targetPoint" />
          </mxGeometry>
        </mxCell>
        <mxCell id="LJEUfoLFm-hJULReYEJR-25" value="" style="endArrow=classic;html=1;rounded=0;entryX=1;entryY=0.5;entryDx=0;entryDy=0;exitX=-0.003;exitY=0.821;exitDx=0;exitDy=0;exitPerimeter=0;" edge="1" parent="1" source="LJEUfoLFm-hJULReYEJR-2" target="LJEUfoLFm-hJULReYEJR-10">
          <mxGeometry width="50" height="50" relative="1" as="geometry">
            <mxPoint x="245" y="410" as="sourcePoint" />
            <mxPoint x="295" y="360" as="targetPoint" />
          </mxGeometry>
        </mxCell>
        <mxCell id="LJEUfoLFm-hJULReYEJR-27" value="" style="endArrow=none;html=1;rounded=0;entryX=0;entryY=0.5;entryDx=0;entryDy=0;strokeColor=#FF0000;" edge="1" parent="1" target="LJEUfoLFm-hJULReYEJR-4">
          <mxGeometry width="50" height="50" relative="1" as="geometry">
            <mxPoint x="195" y="115" as="sourcePoint" />
            <mxPoint x="285" y="260" as="targetPoint" />
          </mxGeometry>
        </mxCell>
        <mxCell id="LJEUfoLFm-hJULReYEJR-29" value="" style="endArrow=classic;html=1;rounded=0;entryX=0.5;entryY=0;entryDx=0;entryDy=0;strokeColor=#FF0000;" edge="1" parent="1" target="LJEUfoLFm-hJULReYEJR-11">
          <mxGeometry width="50" height="50" relative="1" as="geometry">
            <mxPoint x="195" y="115" as="sourcePoint" />
            <mxPoint x="247" y="99" as="targetPoint" />
          </mxGeometry>
        </mxCell>
        <mxCell id="LJEUfoLFm-hJULReYEJR-30" value="" style="endArrow=classic;html=1;rounded=0;entryX=0.5;entryY=0;entryDx=0;entryDy=0;exitX=0.5;exitY=1;exitDx=0;exitDy=0;strokeColor=#FF0000;" edge="1" parent="1" source="LJEUfoLFm-hJULReYEJR-11" target="LJEUfoLFm-hJULReYEJR-7">
          <mxGeometry width="50" height="50" relative="1" as="geometry">
            <mxPoint x="141" y="246" as="sourcePoint" />
            <mxPoint x="191" y="196" as="targetPoint" />
          </mxGeometry>
        </mxCell>
        <mxCell id="LJEUfoLFm-hJULReYEJR-31" value="" style="endArrow=classic;html=1;rounded=0;entryX=0.5;entryY=0;entryDx=0;entryDy=0;exitX=0.5;exitY=1;exitDx=0;exitDy=0;strokeColor=#FF0000;" edge="1" parent="1">
          <mxGeometry width="50" height="50" relative="1" as="geometry">
            <mxPoint x="194.83" y="275" as="sourcePoint" />
            <mxPoint x="194.83" y="295" as="targetPoint" />
          </mxGeometry>
        </mxCell>
        <mxCell id="LJEUfoLFm-hJULReYEJR-32" value="" style="endArrow=classic;html=1;rounded=0;entryX=0.5;entryY=0;entryDx=0;entryDy=0;exitX=0.5;exitY=1;exitDx=0;exitDy=0;strokeColor=#FF0000;" edge="1" parent="1">
          <mxGeometry width="50" height="50" relative="1" as="geometry">
            <mxPoint x="194.83" y="335" as="sourcePoint" />
            <mxPoint x="194.83" y="355" as="targetPoint" />
          </mxGeometry>
        </mxCell>
        <mxCell id="LJEUfoLFm-hJULReYEJR-33" value="" style="endArrow=classic;html=1;rounded=0;entryX=0.5;entryY=0;entryDx=0;entryDy=0;exitX=0.5;exitY=1;exitDx=0;exitDy=0;strokeColor=#FF0000;" edge="1" parent="1">
          <mxGeometry width="50" height="50" relative="1" as="geometry">
            <mxPoint x="194.83" y="395" as="sourcePoint" />
            <mxPoint x="194.83" y="415" as="targetPoint" />
          </mxGeometry>
        </mxCell>
        <mxCell id="LJEUfoLFm-hJULReYEJR-34" value="PWM x5" style="text;html=1;align=center;verticalAlign=middle;whiteSpace=wrap;rounded=0;" vertex="1" parent="1">
          <mxGeometry x="258" y="286" width="60" height="30" as="geometry" />
        </mxCell>
        <mxCell id="LJEUfoLFm-hJULReYEJR-35" value="" style="endArrow=classic;html=1;rounded=0;entryX=0.019;entryY=0.025;entryDx=0;entryDy=0;exitX=1;exitY=1;exitDx=0;exitDy=0;entryPerimeter=0;strokeColor=#FF0000;" edge="1" parent="1" source="LJEUfoLFm-hJULReYEJR-4" target="LJEUfoLFm-hJULReYEJR-14">
          <mxGeometry width="50" height="50" relative="1" as="geometry">
            <mxPoint x="299" y="373" as="sourcePoint" />
            <mxPoint x="349" y="323" as="targetPoint" />
          </mxGeometry>
        </mxCell>
        <mxCell id="LJEUfoLFm-hJULReYEJR-36" value="" style="endArrow=classic;html=1;rounded=0;entryX=0.016;entryY=0.953;entryDx=0;entryDy=0;entryPerimeter=0;exitX=1;exitY=0.098;exitDx=0;exitDy=0;exitPerimeter=0;" edge="1" parent="1" source="LJEUfoLFm-hJULReYEJR-2" target="LJEUfoLFm-hJULReYEJR-14">
          <mxGeometry width="50" height="50" relative="1" as="geometry">
            <mxPoint x="316" y="321" as="sourcePoint" />
            <mxPoint x="465" y="242" as="targetPoint" />
          </mxGeometry>
        </mxCell>
        <mxCell id="LJEUfoLFm-hJULReYEJR-37" value="&lt;font style=&quot;font-size: 10px;&quot;&gt;PWM + DMA&lt;/font&gt;" style="text;html=1;align=center;verticalAlign=middle;whiteSpace=wrap;rounded=0;" vertex="1" parent="1">
          <mxGeometry x="449" y="240" width="99" height="30" as="geometry" />
        </mxCell>
        <mxCell id="LJEUfoLFm-hJULReYEJR-38" value="" style="endArrow=classic;html=1;rounded=0;entryX=0.638;entryY=0.016;entryDx=0;entryDy=0;exitX=0.195;exitY=0.996;exitDx=0;exitDy=0;exitPerimeter=0;entryPerimeter=0;" edge="1" parent="1" source="LJEUfoLFm-hJULReYEJR-2" target="LJEUfoLFm-hJULReYEJR-13">
          <mxGeometry width="50" height="50" relative="1" as="geometry">
            <mxPoint x="240" y="315" as="sourcePoint" />
            <mxPoint x="290" y="265" as="targetPoint" />
          </mxGeometry>
        </mxCell>
        <mxCell id="LJEUfoLFm-hJULReYEJR-39" value="SPI" style="text;html=1;align=center;verticalAlign=middle;whiteSpace=wrap;rounded=0;" vertex="1" parent="1">
          <mxGeometry x="330" y="385" width="60" height="30" as="geometry" />
        </mxCell>
        <mxCell id="LJEUfoLFm-hJULReYEJR-40" value="" style="endArrow=classic;html=1;rounded=0;entryX=0.5;entryY=0;entryDx=0;entryDy=0;exitX=0.972;exitY=0.999;exitDx=0;exitDy=0;exitPerimeter=0;" edge="1" parent="1" source="LJEUfoLFm-hJULReYEJR-2" target="LJEUfoLFm-hJULReYEJR-15">
          <mxGeometry width="50" height="50" relative="1" as="geometry">
            <mxPoint x="210" y="380" as="sourcePoint" />
            <mxPoint x="410" y="405" as="targetPoint" />
          </mxGeometry>
        </mxCell>
        <mxCell id="LJEUfoLFm-hJULReYEJR-41" value="" style="endArrow=classic;html=1;rounded=0;entryX=0.5;entryY=0;entryDx=0;entryDy=0;exitX=0.5;exitY=1;exitDx=0;exitDy=0;strokeColor=#3399FF;" edge="1" parent="1" source="LJEUfoLFm-hJULReYEJR-15" target="LJEUfoLFm-hJULReYEJR-16">
          <mxGeometry width="50" height="50" relative="1" as="geometry">
            <mxPoint x="315" y="385" as="sourcePoint" />
            <mxPoint x="365" y="335" as="targetPoint" />
          </mxGeometry>
        </mxCell>
        <mxCell id="LJEUfoLFm-hJULReYEJR-42" value="UART" style="text;html=1;align=center;verticalAlign=middle;whiteSpace=wrap;rounded=0;" vertex="1" parent="1">
          <mxGeometry x="430" y="385" width="60" height="30" as="geometry" />
        </mxCell>
        <mxCell id="LJEUfoLFm-hJULReYEJR-43" value="" style="endArrow=classic;html=1;rounded=0;entryX=0.421;entryY=0.012;entryDx=0;entryDy=0;entryPerimeter=0;exitX=0.033;exitY=1.003;exitDx=0;exitDy=0;exitPerimeter=0;strokeColor=#FF0000;" edge="1" parent="1">
          <mxGeometry width="50" height="50" relative="1" as="geometry">
            <mxPoint x="330" y="370.00000000000006" as="sourcePoint" />
            <mxPoint x="330.04999999999995" y="430.15000000000003" as="targetPoint" />
          </mxGeometry>
        </mxCell>
        <mxCell id="LJEUfoLFm-hJULReYEJR-44" value="" style="endArrow=classic;html=1;rounded=0;entryX=0.199;entryY=0.018;entryDx=0;entryDy=0;entryPerimeter=0;exitX=0.872;exitY=1.004;exitDx=0;exitDy=0;exitPerimeter=0;strokeColor=#FF0000;" edge="1" parent="1" source="LJEUfoLFm-hJULReYEJR-2" target="LJEUfoLFm-hJULReYEJR-15">
          <mxGeometry width="50" height="50" relative="1" as="geometry">
            <mxPoint x="360" y="475" as="sourcePoint" />
            <mxPoint x="410" y="425" as="targetPoint" />
          </mxGeometry>
        </mxCell>
        <mxCell id="LJEUfoLFm-hJULReYEJR-45" value="" style="endArrow=classic;html=1;rounded=0;entryX=0;entryY=0.25;entryDx=0;entryDy=0;exitX=1.008;exitY=0.408;exitDx=0;exitDy=0;exitPerimeter=0;" edge="1" parent="1" source="LJEUfoLFm-hJULReYEJR-2" target="LJEUfoLFm-hJULReYEJR-17">
          <mxGeometry width="50" height="50" relative="1" as="geometry">
            <mxPoint x="340" y="380" as="sourcePoint" />
            <mxPoint x="390" y="330" as="targetPoint" />
          </mxGeometry>
        </mxCell>
        <mxCell id="LJEUfoLFm-hJULReYEJR-46" value="" style="endArrow=classic;html=1;rounded=0;entryX=0;entryY=0.625;entryDx=0;entryDy=0;exitX=1.008;exitY=0.408;exitDx=0;exitDy=0;exitPerimeter=0;strokeColor=#FF0000;entryPerimeter=0;" edge="1" parent="1" target="LJEUfoLFm-hJULReYEJR-17">
          <mxGeometry width="50" height="50" relative="1" as="geometry">
            <mxPoint x="436" y="320" as="sourcePoint" />
            <mxPoint x="490" y="320" as="targetPoint" />
          </mxGeometry>
        </mxCell>
        <mxCell id="LJEUfoLFm-hJULReYEJR-47" value="UART" style="text;html=1;align=center;verticalAlign=middle;whiteSpace=wrap;rounded=0;" vertex="1" parent="1">
          <mxGeometry x="430" y="280" width="60" height="30" as="geometry" />
        </mxCell>
        <mxCell id="LJEUfoLFm-hJULReYEJR-48" value="&lt;font style=&quot;color: rgb(51, 153, 255);&quot;&gt;Food&lt;/font&gt;&lt;div&gt;&lt;font style=&quot;color: rgb(51, 153, 255);&quot;&gt;dispenser&lt;/font&gt;&lt;/div&gt;" style="rounded=1;whiteSpace=wrap;html=1;strokeColor=#3399FF;" vertex="1" parent="1">
          <mxGeometry x="50" y="175" width="80" height="40" as="geometry" />
        </mxCell>
        <mxCell id="LJEUfoLFm-hJULReYEJR-49" value="&lt;font style=&quot;color: rgb(51, 153, 255);&quot;&gt;Door&lt;/font&gt;" style="rounded=1;whiteSpace=wrap;html=1;strokeColor=#3399FF;" vertex="1" parent="1">
          <mxGeometry x="50" y="235" width="80" height="40" as="geometry" />
        </mxCell>
        <mxCell id="LJEUfoLFm-hJULReYEJR-50" value="&lt;font style=&quot;color: rgb(51, 153, 255);&quot;&gt;Door&lt;/font&gt;" style="rounded=1;whiteSpace=wrap;html=1;strokeColor=#3399FF;" vertex="1" parent="1">
          <mxGeometry x="50" y="295" width="80" height="40" as="geometry" />
        </mxCell>
        <mxCell id="LJEUfoLFm-hJULReYEJR-51" value="&lt;font style=&quot;color: rgb(51, 153, 255);&quot;&gt;Door&lt;/font&gt;" style="rounded=1;whiteSpace=wrap;html=1;strokeColor=#3399FF;" vertex="1" parent="1">
          <mxGeometry x="50" y="355" width="80" height="40" as="geometry" />
        </mxCell>
        <mxCell id="LJEUfoLFm-hJULReYEJR-52" value="&lt;font style=&quot;color: rgb(51, 153, 255);&quot;&gt;Garage&lt;/font&gt;&lt;div&gt;&lt;font style=&quot;color: rgb(51, 153, 255);&quot;&gt;door&lt;/font&gt;&lt;/div&gt;" style="rounded=1;whiteSpace=wrap;html=1;strokeColor=#3399FF;" vertex="1" parent="1">
          <mxGeometry x="50" y="415" width="80" height="40" as="geometry" />
        </mxCell>
        <mxCell id="LJEUfoLFm-hJULReYEJR-53" value="" style="endArrow=classic;html=1;rounded=0;entryX=1;entryY=0.5;entryDx=0;entryDy=0;exitX=0;exitY=0.5;exitDx=0;exitDy=0;strokeColor=#007FFF;" edge="1" parent="1" source="LJEUfoLFm-hJULReYEJR-7" target="LJEUfoLFm-hJULReYEJR-49">
          <mxGeometry width="50" height="50" relative="1" as="geometry">
            <mxPoint x="200" y="380" as="sourcePoint" />
            <mxPoint x="250" y="330" as="targetPoint" />
          </mxGeometry>
        </mxCell>
        <mxCell id="LJEUfoLFm-hJULReYEJR-54" value="" style="endArrow=classic;html=1;rounded=0;entryX=1;entryY=0.5;entryDx=0;entryDy=0;exitX=0;exitY=0.5;exitDx=0;exitDy=0;strokeColor=#007FFF;" edge="1" parent="1">
          <mxGeometry width="50" height="50" relative="1" as="geometry">
            <mxPoint x="155" y="314.84000000000003" as="sourcePoint" />
            <mxPoint x="130" y="314.84000000000003" as="targetPoint" />
          </mxGeometry>
        </mxCell>
        <mxCell id="LJEUfoLFm-hJULReYEJR-55" value="" style="endArrow=classic;html=1;rounded=0;entryX=1;entryY=0.5;entryDx=0;entryDy=0;exitX=0;exitY=0.5;exitDx=0;exitDy=0;strokeColor=#007FFF;" edge="1" parent="1">
          <mxGeometry width="50" height="50" relative="1" as="geometry">
            <mxPoint x="155" y="374.84000000000003" as="sourcePoint" />
            <mxPoint x="130" y="374.84000000000003" as="targetPoint" />
          </mxGeometry>
        </mxCell>
        <mxCell id="LJEUfoLFm-hJULReYEJR-56" value="" style="endArrow=classic;html=1;rounded=0;entryX=1;entryY=0.5;entryDx=0;entryDy=0;exitX=0;exitY=0.5;exitDx=0;exitDy=0;strokeColor=#3399FF;" edge="1" parent="1">
          <mxGeometry width="50" height="50" relative="1" as="geometry">
            <mxPoint x="155" y="434.84000000000003" as="sourcePoint" />
            <mxPoint x="130" y="434.84000000000003" as="targetPoint" />
          </mxGeometry>
        </mxCell>
        <mxCell id="LJEUfoLFm-hJULReYEJR-58" value="" style="endArrow=classic;html=1;rounded=0;entryX=1;entryY=0.5;entryDx=0;entryDy=0;exitX=0;exitY=0.5;exitDx=0;exitDy=0;strokeColor=#007FFF;" edge="1" parent="1">
          <mxGeometry width="50" height="50" relative="1" as="geometry">
            <mxPoint x="155" y="194.82999999999998" as="sourcePoint" />
            <mxPoint x="130" y="194.82999999999998" as="targetPoint" />
          </mxGeometry>
        </mxCell>
        <mxCell id="LJEUfoLFm-hJULReYEJR-59" value="" style="rounded=0;whiteSpace=wrap;html=1;fillColor=none;strokeColor=#7F00FF;dashed=1;dashPattern=8 8;strokeWidth=2;" vertex="1" parent="1">
          <mxGeometry x="145" y="75" width="465" height="405" as="geometry" />
        </mxCell>
        <mxCell id="LJEUfoLFm-hJULReYEJR-60" value="&lt;font style=&quot;color: rgb(127, 0, 255);&quot;&gt;PCB MAIN UNIT&lt;/font&gt;" style="text;html=1;align=center;verticalAlign=middle;whiteSpace=wrap;rounded=0;" vertex="1" parent="1">
          <mxGeometry x="505" y="455" width="110" height="30" as="geometry" />
        </mxCell>
        <mxCell id="LJEUfoLFm-hJULReYEJR-61" value="" style="endArrow=classic;startArrow=classic;html=1;rounded=0;strokeColor=#007FFF;dashed=1;exitX=1;exitY=0.5;exitDx=0;exitDy=0;entryX=0;entryY=0.5;entryDx=0;entryDy=0;" edge="1" parent="1" source="LJEUfoLFm-hJULReYEJR-17" target="LJEUfoLFm-hJULReYEJR-64">
          <mxGeometry width="50" height="50" relative="1" as="geometry">
            <mxPoint x="650" y="335" as="sourcePoint" />
            <mxPoint x="700" y="315" as="targetPoint" />
          </mxGeometry>
        </mxCell>
        <mxCell id="LJEUfoLFm-hJULReYEJR-62" value="&lt;font style=&quot;color: rgb(0, 127, 255);&quot;&gt;Bluetooth&lt;/font&gt;" style="text;html=1;align=center;verticalAlign=middle;whiteSpace=wrap;rounded=0;" vertex="1" parent="1">
          <mxGeometry x="605" y="290" width="60" height="30" as="geometry" />
        </mxCell>
        <mxCell id="LJEUfoLFm-hJULReYEJR-63" value="STM32G431KBT6&lt;div&gt;Microcontroller&lt;/div&gt;" style="whiteSpace=wrap;html=1;aspect=fixed;" vertex="1" parent="1">
          <mxGeometry x="820" y="260" width="110" height="110" as="geometry" />
        </mxCell>
        <mxCell id="LJEUfoLFm-hJULReYEJR-64" value="HC05 (Bluetooth)" style="rounded=1;whiteSpace=wrap;html=1;" vertex="1" parent="1">
          <mxGeometry x="680" y="295" width="80" height="40" as="geometry" />
        </mxCell>
        <mxCell id="LJEUfoLFm-hJULReYEJR-65" value="&lt;font style=&quot;color: rgb(255, 0, 0);&quot;&gt;LiPo 1S1P&lt;/font&gt;&lt;div&gt;&lt;font color=&quot;#ff0000&quot;&gt;3.8V&lt;/font&gt;&lt;/div&gt;" style="rounded=0;whiteSpace=wrap;html=1;strokeColor=#FF0000;" vertex="1" parent="1">
          <mxGeometry x="965" y="100" width="90" height="50" as="geometry" />
        </mxCell>
        <mxCell id="LJEUfoLFm-hJULReYEJR-66" value="&lt;font color=&quot;#ff0000&quot;&gt;Boost&lt;/font&gt;&lt;div&gt;&lt;font color=&quot;#ff0000&quot;&gt;-&amp;gt; 5V&lt;/font&gt;&lt;/div&gt;" style="rounded=0;whiteSpace=wrap;html=1;strokeColor=#FF0000;" vertex="1" parent="1">
          <mxGeometry x="830" y="100" width="90" height="50" as="geometry" />
        </mxCell>
        <mxCell id="LJEUfoLFm-hJULReYEJR-67" value="&lt;font style=&quot;color: rgb(255, 0, 0);&quot;&gt;LDO&lt;/font&gt;&lt;div&gt;&lt;font style=&quot;color: rgb(255, 0, 0);&quot;&gt;5V -&amp;gt; 3.3V&lt;/font&gt;&lt;/div&gt;" style="rounded=0;whiteSpace=wrap;html=1;strokeColor=#FF0000;" vertex="1" parent="1">
          <mxGeometry x="830" y="180" width="90" height="50" as="geometry" />
        </mxCell>
        <mxCell id="LJEUfoLFm-hJULReYEJR-68" value="" style="endArrow=classic;html=1;rounded=0;entryX=1;entryY=0.5;entryDx=0;entryDy=0;exitX=0;exitY=0.5;exitDx=0;exitDy=0;strokeColor=#FF0000;" edge="1" parent="1" source="LJEUfoLFm-hJULReYEJR-65" target="LJEUfoLFm-hJULReYEJR-66">
          <mxGeometry width="50" height="50" relative="1" as="geometry">
            <mxPoint x="770" y="280" as="sourcePoint" />
            <mxPoint x="820" y="230" as="targetPoint" />
          </mxGeometry>
        </mxCell>
        <mxCell id="LJEUfoLFm-hJULReYEJR-69" value="" style="endArrow=classic;html=1;rounded=0;entryX=0.5;entryY=0;entryDx=0;entryDy=0;exitX=0.5;exitY=1;exitDx=0;exitDy=0;strokeColor=#FF0000;" edge="1" parent="1" source="LJEUfoLFm-hJULReYEJR-66" target="LJEUfoLFm-hJULReYEJR-67">
          <mxGeometry width="50" height="50" relative="1" as="geometry">
            <mxPoint x="770" y="280" as="sourcePoint" />
            <mxPoint x="820" y="230" as="targetPoint" />
          </mxGeometry>
        </mxCell>
        <mxCell id="LJEUfoLFm-hJULReYEJR-70" value="" style="endArrow=classic;html=1;rounded=0;entryX=0.5;entryY=0;entryDx=0;entryDy=0;exitX=0.5;exitY=1;exitDx=0;exitDy=0;strokeColor=#FF0000;" edge="1" parent="1" source="LJEUfoLFm-hJULReYEJR-67" target="LJEUfoLFm-hJULReYEJR-63">
          <mxGeometry width="50" height="50" relative="1" as="geometry">
            <mxPoint x="770" y="280" as="sourcePoint" />
            <mxPoint x="820" y="230" as="targetPoint" />
          </mxGeometry>
        </mxCell>
        <mxCell id="LJEUfoLFm-hJULReYEJR-71" value="" style="endArrow=classic;html=1;rounded=0;entryX=1;entryY=0.25;entryDx=0;entryDy=0;exitX=-0.001;exitY=0.41;exitDx=0;exitDy=0;exitPerimeter=0;" edge="1" parent="1" source="LJEUfoLFm-hJULReYEJR-63" target="LJEUfoLFm-hJULReYEJR-64">
          <mxGeometry width="50" height="50" relative="1" as="geometry">
            <mxPoint x="685" y="340" as="sourcePoint" />
            <mxPoint x="770" y="305" as="targetPoint" />
          </mxGeometry>
        </mxCell>
        <mxCell id="LJEUfoLFm-hJULReYEJR-72" value="" style="endArrow=classic;html=1;rounded=0;entryX=1;entryY=0.25;entryDx=0;entryDy=0;exitX=-0.001;exitY=0.41;exitDx=0;exitDy=0;exitPerimeter=0;strokeColor=#FF0000;" edge="1" parent="1">
          <mxGeometry width="50" height="50" relative="1" as="geometry">
            <mxPoint x="820" y="325" as="sourcePoint" />
            <mxPoint x="760" y="325" as="targetPoint" />
          </mxGeometry>
        </mxCell>
        <mxCell id="LJEUfoLFm-hJULReYEJR-74" value="Switches&lt;div&gt;x11&lt;/div&gt;" style="rounded=1;whiteSpace=wrap;html=1;" vertex="1" parent="1">
          <mxGeometry x="990" y="295" width="80" height="40" as="geometry" />
        </mxCell>
        <mxCell id="LJEUfoLFm-hJULReYEJR-75" value="" style="endArrow=classic;html=1;rounded=0;entryX=1;entryY=0.5;entryDx=0;entryDy=0;exitX=0;exitY=0.5;exitDx=0;exitDy=0;" edge="1" parent="1" source="LJEUfoLFm-hJULReYEJR-74" target="LJEUfoLFm-hJULReYEJR-63">
          <mxGeometry width="50" height="50" relative="1" as="geometry">
            <mxPoint x="755" y="345" as="sourcePoint" />
            <mxPoint x="805" y="295" as="targetPoint" />
          </mxGeometry>
        </mxCell>
        <mxCell id="LJEUfoLFm-hJULReYEJR-76" value="GPIO" style="text;html=1;align=center;verticalAlign=middle;whiteSpace=wrap;rounded=0;" vertex="1" parent="1">
          <mxGeometry x="930" y="290" width="60" height="30" as="geometry" />
        </mxCell>
        <mxCell id="LJEUfoLFm-hJULReYEJR-79" value="inputs" style="text;html=1;align=center;verticalAlign=middle;whiteSpace=wrap;rounded=0;" vertex="1" parent="1">
          <mxGeometry x="930" y="310" width="60" height="30" as="geometry" />
        </mxCell>
        <mxCell id="LJEUfoLFm-hJULReYEJR-80" value="UART" style="text;html=1;align=center;verticalAlign=middle;whiteSpace=wrap;rounded=0;" vertex="1" parent="1">
          <mxGeometry x="765" y="280" width="60" height="30" as="geometry" />
        </mxCell>
        <mxCell id="LJEUfoLFm-hJULReYEJR-81" value="&lt;div&gt;LCD Display&lt;/div&gt;&lt;div&gt;16 x 02&lt;/div&gt;" style="rounded=1;whiteSpace=wrap;html=1;" vertex="1" parent="1">
          <mxGeometry x="835" y="405" width="80" height="40" as="geometry" />
        </mxCell>
        <mxCell id="LJEUfoLFm-hJULReYEJR-82" value="" style="endArrow=classic;html=1;rounded=0;entryX=0.5;entryY=0;entryDx=0;entryDy=0;exitX=0.5;exitY=1;exitDx=0;exitDy=0;" edge="1" parent="1" source="LJEUfoLFm-hJULReYEJR-63" target="LJEUfoLFm-hJULReYEJR-81">
          <mxGeometry width="50" height="50" relative="1" as="geometry">
            <mxPoint x="750" y="370" as="sourcePoint" />
            <mxPoint x="800" y="320" as="targetPoint" />
          </mxGeometry>
        </mxCell>
        <mxCell id="LJEUfoLFm-hJULReYEJR-83" value="I²C" style="text;html=1;align=center;verticalAlign=middle;whiteSpace=wrap;rounded=0;" vertex="1" parent="1">
          <mxGeometry x="860" y="370" width="60" height="30" as="geometry" />
        </mxCell>
        <mxCell id="LJEUfoLFm-hJULReYEJR-84" value="" style="rounded=0;whiteSpace=wrap;html=1;fillColor=none;strokeColor=#FF8000;dashed=1;dashPattern=8 8;strokeWidth=2;" vertex="1" parent="1">
          <mxGeometry x="665" y="75" width="415" height="385" as="geometry" />
        </mxCell>
        <mxCell id="LJEUfoLFm-hJULReYEJR-86" value="&lt;font style=&quot;color: rgb(255, 128, 0);&quot;&gt;PCB CONTROLLER&lt;/font&gt;" style="text;html=1;align=center;verticalAlign=middle;whiteSpace=wrap;rounded=0;" vertex="1" parent="1">
          <mxGeometry x="955" y="435" width="125" height="30" as="geometry" />
        </mxCell>
      </root>
    </mxGraphModel>
  </diagram>
</mxfile>
